<svg width="54" height="55" viewBox="0 0 54 55" fill="none" xmlns="http://www.w3.org/2000/svg">
<path d="M38.9223 43.4441H15.0118C10.7829 43.4441 8.66849 43.4441 7.35475 42.1303C6.04102 40.8166 6.04102 38.7022 6.04102 34.4733V23.4148C6.04102 21.4094 6.04102 20.4067 6.35589 19.6113C6.81181 18.4595 7.72374 17.5476 8.8755 17.0917C9.67092 16.7768 10.6736 16.7768 12.679 16.7768C13.666 16.7768 14.1595 16.7768 14.622 16.6782C15.2907 16.5356 15.918 16.242 16.4559 15.8198C16.8279 15.5278 17.144 15.1488 17.7763 14.391L18.0525 14.0599C18.9564 12.9763 19.4083 12.4345 19.977 12.0656C20.3231 11.841 20.6986 11.6652 21.0928 11.5433C21.7405 11.343 22.446 11.343 23.8571 11.343H30.4305C31.0818 11.343 31.4075 11.343 31.7108 11.3846C32.8337 11.5386 33.8566 12.112 34.574 12.9894C34.7677 13.2265 34.9377 13.5043 35.2776 14.0599L35.2776 14.0599C35.6175 14.6155 35.7874 14.8933 35.9812 15.1303C36.6985 16.0078 37.7214 16.5812 38.8443 16.7352C39.1477 16.7768 39.4733 16.7768 40.1246 16.7768H40.874C43.2375 16.7768 44.4193 16.7768 45.333 17.211C46.2651 17.654 47.0159 18.4048 47.4588 19.3369C47.8931 20.2506 47.8931 21.4323 47.8931 23.7958V34.4733C47.8931 38.7022 47.8931 40.8166 46.5793 42.1303C45.2656 43.4441 43.1512 43.4441 38.9223 43.4441Z" stroke="#8B8B8B" stroke-width="3.36404"/>
<circle cx="26.9693" cy="29.2669" r="7.97775" stroke="#8B8B8B" stroke-width="3.36404"/>
<circle cx="41.9976" cy="23.4519" r="2.43215" fill="#8B8B8B"/>
<rect x="9.18457" y="21.0197" width="7.25615" height="3.02575" rx="1.51288" fill="#8B8B8B"/>
</svg>
